<?xml version="1.0" encoding="utf-8"?>
<!-- Generator: Adobe Illustrator 25.4.1, SVG Export Plug-In . SVG Version: 6.00 Build 0)  -->
<svg version="1.1" id="Capa_1" xmlns="http://www.w3.org/2000/svg" xmlns:xlink="http://www.w3.org/1999/xlink" x="0px" y="0px"
	 viewBox="0 0 841.9 595.3" style="enable-background:new 0 0 841.9 595.3;" xml:space="preserve">
<style type="text/css">
	.st0{clip-path:url(#SVGID_00000111884415397849805060000009633596144473176195_);fill:#FFFFFF;}
	.st1{clip-path:url(#SVGID_00000111884415397849805060000009633596144473176195_);}
	.st2{fill:#FFFFFF;}
	.st3{clip-path:url(#SVGID_00000053538261129131353760000004726792145758147214_);}
</style>
<g>
	<defs>
		<rect id="SVGID_1_" y="0" width="841.9" height="595.3"/>
	</defs>
	<clipPath id="SVGID_00000119108730664713479820000006278038785885182347_">
		<use xlink:href="#SVGID_1_"  style="overflow:visible;"/>
	</clipPath>
	<path style="clip-path:url(#SVGID_00000119108730664713479820000006278038785885182347_);fill:#FFFFFF;" d="M425.8,327.8
		c0,3-2.5,5.5-5.5,5.5c-3,0-5.5-2.5-5.5-5.5c0-3,2.5-5.5,5.5-5.5C423.3,322.3,425.8,324.8,425.8,327.8 M429.1,327.8
		c0-4.9-4-8.9-8.9-8.9c-4.9,0-8.9,4-8.9,8.9c0,4.9,4,8.9,8.9,8.9C425.2,336.7,429.1,332.7,429.1,327.8"/>
	<g style="clip-path:url(#SVGID_00000119108730664713479820000006278038785885182347_);">
		<path class="st2" d="M496.3,362.9l2.8,1.2c-9.4,20.4-26.5,36.5-47.6,44.6l-1.1-2.8C470.7,398.1,487.2,382.6,496.3,362.9
			 M489.8,360c-8.3,18-23.4,32.2-42,39.3l-1-2.5c17.9-6.9,32.5-20.6,40.5-38L489.8,360z M481.4,356.2c-7.3,15.8-20.6,28.2-36.9,34.5
			l-0.9-2.4c15.7-6,28.4-18,35.4-33.1L481.4,356.2z M472.8,352.3c-6.3,13.5-17.7,24.2-31.7,29.6l-1-2.6
			c13.3-5.1,24.1-15.3,30.1-28.1L472.8,352.3z M463.8,348.2c-5.2,11.2-14.7,20-26.3,24.5l-1-2.6c10.9-4.2,19.8-12.5,24.7-23
			L463.8,348.2z M454.7,327.8c0,19-15.4,34.4-34.4,34.4c-19,0-34.4-15.4-34.4-34.4c0-19,15.4-34.4,34.4-34.4
			C439.3,293.4,454.7,308.8,454.7,327.8 M518.6,327.8c0-54.3-44-98.3-98.4-98.3c-54.3,0-98.4,44-98.4,98.3c0,54.3,44,98.4,98.4,98.4
			C474.6,426.2,518.6,382.1,518.6,327.8"/>
	</g>
</g>
<g>
	<defs>
		<path id="SVGID_00000075855195601687117830000012428945433060130980_" d="M414.7,327.8c0-3,2.5-5.5,5.5-5.5c3,0,5.5,2.5,5.5,5.5
			c0,3-2.5,5.5-5.5,5.5C417.2,333.3,414.7,330.9,414.7,327.8 M411.4,327.8c0,4.9,4,8.9,8.9,8.9c4.9,0,8.9-4,8.9-8.9
			c0-4.9-4-8.9-8.9-8.9C415.3,318.9,411.4,322.9,411.4,327.8"/>
	</defs>
	<clipPath id="SVGID_00000109711757195451635620000007963607798084252572_">
		<use xlink:href="#SVGID_00000075855195601687117830000012428945433060130980_"  style="overflow:visible;"/>
	</clipPath>
	<path style="clip-path:url(#SVGID_00000109711757195451635620000007963607798084252572_);" d="M420.3,336.7L420.3,336.7
		c4.9,0.1,8.9-3.9,8.9-8.9c0-4.9-4-8.9-8.9-8.9c-4.9,0-8.9,4-8.9,8.9C411.3,332.8,415.3,336.8,420.3,336.7L420.3,336.7L420.3,336.7
		c-2.4-0.1-4.6-1-6.2-2.6s-2.6-3.8-2.6-6.2c0-2.4,1-4.6,2.6-6.2c1.6-1.6,3.8-2.6,6.2-2.6c2.4,0,4.6,1,6.2,2.6
		c1.6,1.6,2.6,3.8,2.6,6.2c0,2.4-1,4.6-2.6,6.2S422.7,336.7,420.3,336.7L420.3,336.7z"/>
</g>
</svg>
